# xmcd
#
# Track frame offsets:
#	150
#	16325
#	32482
#
# Disc length: 647 seconds
#
# Revision: 3
# Processed by: cddbd v1.5.2PL0 Copyright (c) Steve Scherf et al.
# Submitted via: audiograbber 1.83.01
#
DISCID=16028503
DTITLE=Sandra Weiss - Das Musical des Lebens
DYEAR=1900
DGENRE=Volksmusik
TTITLE0=Das Musical des Lebens
TTITLE1=Das Musical des Lebens (Orchestermix)
TTITLE2=Das Musical des Lebens (karaoke)
EXTD=<http://www.hit-radio24.de>
EXTT0=
EXTT1=
EXTT2=
PLAYORDER=
